<svg version="1.0" xmlns="http://www.w3.org/2000/svg"
  width="537.000000pt" height="594.000000pt" viewBox="0 0 537.000000 594.000000"
  preserveAspectRatio="xMidYMid meet">
  <g transform="translate(0.000000,594.000000) scale(0.100000,-0.100000)"
    fill="#000000" stroke="none">
    <path d="M2555 4897 c-136 -78 -467 -270 -635 -367 -69 -40 -179 -103 -245
      -140 -192 -110 -212 -99 196 -100 l356 0 99 58 c215 127 346 202 354 202 8 0
      139 -75 354 -202 l99 -58 356 2 356 3 -105 61 c-599 350 -1045 604 -1059 604
      -9 0 -65 -29 -126 -63z" />
    <path d="M1505 4069 c-2 -3 51 -102 119 -220 156 -272 354 -615 378 -654 22
      -37 22 -44 -1 -74 -18 -23 -22 -24 -57 -14 -22 7 -57 16 -79 22 -34 9 -46 19
      -72 63 -36 62 -106 182 -339 586 l-169 292 -212 0 c-117 0 -213 -1 -213 -3 0
      -3 125 -221 377 -657 71 -124 174 -301 228 -395 54 -93 102 -176 107 -182 6
      -7 29 -18 52 -23 109 -29 146 -41 146 -51 0 -6 -16 -37 -35 -69 -19 -32 -35
      -63 -35 -70 0 -13 33 -73 163 -295 88 -152 113 -194 292 -505 191 -332 209
      -363 292 -505 38 -66 105 -182 149 -257 43 -76 81 -138 84 -138 6 0 129 209
      183 310 l30 55 -135 235 c-75 129 -185 321 -245 425 -61 105 -162 280 -225
      390 -64 110 -126 217 -138 238 -19 31 -21 43 -12 62 l11 24 73 -21 c40 -11 83
      -23 95 -25 23 -5 62 -69 368 -603 65 -113 146 -252 180 -310 34 -58 76 -131
      94 -163 18 -32 38 -56 44 -54 5 1 27 32 47 67 20 36 65 113 98 171 34 59 62
      111 62 117 0 5 -48 92 -106 193 -59 101 -183 317 -277 479 -93 162 -184 319
      -201 348 -17 30 -38 57 -46 62 -8 4 -60 20 -115 36 -55 15 -102 29 -104 31 -2
      1 15 33 37 70 23 37 44 76 47 85 5 12 -16 58 -61 135 -37 65 -122 213 -189
      328 -67 116 -154 267 -195 337 l-74 127 -209 3 c-115 2 -211 0 -212 -3z" />
    <path d="M2165 4070 c-1 -3 78 -144 176 -315 99 -170 213 -370 255 -442 42
      -73 80 -133 85 -133 5 0 16 15 25 33 9 17 36 64 59 102 23 39 78 133 122 210
      45 77 131 227 192 332 61 106 112 197 113 203 3 11 -1021 21 -1027 10z" />
    <path d="M3931 4070 l-554 -5 -17 -30 c-21 -37 -147 -255 -370 -640 -51 -88
      -106 -185 -123 -215 -16 -30 -38 -66 -47 -80 -10 -14 -27 -44 -39 -68 l-22
      -43 35 -57 c18 -31 43 -73 54 -92 26 -47 152 -265 242 -420 40 -69 106 -185
      148 -257 42 -73 79 -133 83 -133 4 0 30 42 60 93 96 167 340 591 379 657 141
      241 200 346 200 355 0 13 -398 20 -416 8 -6 -5 -24 -33 -41 -63 -16 -30 -56
      -100 -88 -155 -32 -55 -65 -112 -74 -127 -9 -16 -18 -28 -21 -28 -6 0 -130
      214 -130 223 0 4 55 102 123 219 68 117 159 275 202 350 l78 137 130 3 c71 2
      130 1 132 -2 2 -3 -19 -43 -46 -88 -27 -46 -49 -86 -49 -88 0 -2 -18 -32 -39
      -67 -21 -35 -46 -78 -55 -95 l-17 -32 215 0 214 0 211 367 c116 201 208 369
      204 372 -4 3 -257 4 -562 1z" />
    <path d="M990 2706 l0 -673 228 -131 c125 -71 281 -161 347 -200 318 -184 578
      -332 586 -332 9 0 -13 39 -193 348 -65 112 -118 206 -118 210 0 30 -145 125
      -437 285 l-53 29 0 265 0 265 -61 107 c-168 292 -291 501 -295 501 -2 0 -4
      -303 -4 -674z" />
    <path d="M4317 3303 c-24 -43 -69 -121 -99 -173 -30 -52 -89 -154 -131 -226
      l-75 -132 -1 -263 c-1 -200 -4 -266 -13 -272 -7 -4 -110 -64 -228 -132 l-215
      -125 -89 -152 c-209 -360 -264 -458 -256 -458 8 0 99 52 550 313 124 72 287
      165 362 208 75 42 162 92 192 110 l56 34 0 672 c0 370 -2 673 -4 673 -3 0 -25
      -35 -49 -77z" />
  </g>
</svg>